<svg xmlns="http://www.w3.org/2000/svg" width="169.341" height="32.069" viewBox="0 0 169.341 32.069">
  <g id="Grupo_10486" data-name="Grupo 10486" transform="translate(-1121.728 -315.811)">
    <path id="Trazado_16864" data-name="Trazado 16864" d="M524.6,46.58a.223.223,0,0,1-.253-.253V45.06a.224.224,0,0,1,.253-.253h1.32V39.022H524.6a.224.224,0,0,1-.253-.254V37.5a.223.223,0,0,1,.253-.253h4.732c.178,0,.267.083.267.253v1.266c0,.169-.089.254-.267.254h-1.319v5.785h1.319c.178,0,.267.085.267.253v1.267c0,.169-.089.253-.267.253Z" transform="translate(628.931 283.155)" fill="#7c858b"/>
    <path id="Trazado_16865" data-name="Trazado 16865" d="M535.4,39.9a2.836,2.836,0,0,1,2.106.806,2.905,2.905,0,0,1,.8,2.14v3.48a.224.224,0,0,1-.253.253h-1.493c-.178,0-.267-.085-.267-.253V43.114a1.554,1.554,0,0,0-.38-1.093,1.319,1.319,0,0,0-1.02-.413,1.483,1.483,0,0,0-1.073.392,1.392,1.392,0,0,0-.406,1.047v3.28a.224.224,0,0,1-.254.253h-1.493a.224.224,0,0,1-.253-.253V42.141a.459.459,0,0,0-.52-.52,2.654,2.654,0,0,0-.293.04c-.2,0-.293-.071-.293-.213V40.354a.278.278,0,0,1,.2-.293,2.636,2.636,0,0,1,.959-.16,1.66,1.66,0,0,1,1.6.84,3.154,3.154,0,0,1,2.333-.84" transform="translate(628.931 283.155)" fill="#7c858b"/>
    <path id="Trazado_16866" data-name="Trazado 16866" d="M544.451,39.9a2.836,2.836,0,0,1,2.106.806,2.905,2.905,0,0,1,.8,2.14v3.48a.224.224,0,0,1-.253.253h-1.493c-.178,0-.267-.085-.267-.253V43.114a1.554,1.554,0,0,0-.38-1.093,1.319,1.319,0,0,0-1.02-.413,1.483,1.483,0,0,0-1.073.392,1.392,1.392,0,0,0-.406,1.047v3.28a.224.224,0,0,1-.254.253h-1.493a.224.224,0,0,1-.253-.253V42.141a.459.459,0,0,0-.52-.52,2.654,2.654,0,0,0-.293.04c-.2,0-.293-.071-.293-.213V40.354a.278.278,0,0,1,.2-.293,2.636,2.636,0,0,1,.959-.16,1.659,1.659,0,0,1,1.6.84,3.154,3.154,0,0,1,2.333-.84" transform="translate(628.931 283.155)" fill="#7c858b"/>
    <path id="Trazado_16867" data-name="Trazado 16867" d="M550.989,44.653a1.909,1.909,0,0,0,2.547,0,1.754,1.754,0,0,0,.486-1.3,1.783,1.783,0,0,0-.486-1.307,1.891,1.891,0,0,0-2.547,0,1.782,1.782,0,0,0-.486,1.307,1.754,1.754,0,0,0,.486,1.3m3.933,1.194a4.211,4.211,0,0,1-5.319,0,3.608,3.608,0,0,1,0-5,4.208,4.208,0,0,1,5.319,0,3.605,3.605,0,0,1,0,5" transform="translate(628.931 283.155)" fill="#7c858b"/>
    <path id="Trazado_16868" data-name="Trazado 16868" d="M559.608,46.58a.282.282,0,0,1-.28-.187l-2.786-5.985c-.071-.195-.005-.294.2-.294h1.586a.3.3,0,0,1,.294.187l1.733,3.866,1.759-3.866a.285.285,0,0,1,.28-.187h1.573a.191.191,0,0,1,.2.294l-2.786,5.985a.282.282,0,0,1-.28.187Z" transform="translate(628.931 283.155)" fill="#7c858b"/>
    <path id="Trazado_16869" data-name="Trazado 16869" d="M568.46,45.234a1.544,1.544,0,0,0,1.213-.527,2.212,2.212,0,0,0,0-2.719,1.541,1.541,0,0,0-1.213-.527,1.6,1.6,0,0,0-1.24.527,2.165,2.165,0,0,0,0,2.719,1.6,1.6,0,0,0,1.24.527m4.959,1.12a.235.235,0,0,1-.213.28,3.615,3.615,0,0,1-1,.16,1.753,1.753,0,0,1-1.68-.813,3.3,3.3,0,0,1-2.239.813,3.454,3.454,0,0,1-2.526-.961,3.643,3.643,0,0,1,0-4.972,3.453,3.453,0,0,1,2.526-.96,2.993,2.993,0,0,1,1.893.613v-.146a.224.224,0,0,1,.253-.254H571.9a.225.225,0,0,1,.254.254v4.186c0,.346.146.52.44.52a1.841,1.841,0,0,0,.413-.041c.178-.017.271.054.28.214Z" transform="translate(628.931 283.155)" fill="#7c858b"/>
    <path id="Trazado_16870" data-name="Trazado 16870" d="M577.911,46.793a3.725,3.725,0,0,1-2.659-.946,3.605,3.605,0,0,1,0-5,4.189,4.189,0,0,1,4.9-.294,2.729,2.729,0,0,1,1.119,1.759c.027.179-.049.267-.226.267h-1.427a.3.3,0,0,1-.28-.213,1.226,1.226,0,0,0-.526-.62,1.692,1.692,0,0,0-.9-.234,1.667,1.667,0,0,0-1.267.507,1.867,1.867,0,0,0-.479,1.334,1.839,1.839,0,0,0,.479,1.326,1.676,1.676,0,0,0,1.267.5,1.749,1.749,0,0,0,.906-.227,1.119,1.119,0,0,0,.52-.626.319.319,0,0,1,.28-.214h1.427c.177,0,.253.089.226.267a2.733,2.733,0,0,1-1.119,1.76,3.738,3.738,0,0,1-2.24.653" transform="translate(628.931 283.155)" fill="#7c858b"/>
    <path id="Trazado_16871" data-name="Trazado 16871" d="M582.884,46.58a.223.223,0,0,1-.253-.253V40.368a.224.224,0,0,1,.253-.254h1.493a.224.224,0,0,1,.253.254v5.959a.223.223,0,0,1-.253.253Zm1.593-7.972a1.28,1.28,0,0,1-1.693,0,1.035,1.035,0,0,1-.34-.786,1.017,1.017,0,0,1,.34-.78,1.3,1.3,0,0,1,1.693,0,1.017,1.017,0,0,1,.34.78,1.035,1.035,0,0,1-.34.786" transform="translate(628.931 283.155)" fill="#7c858b"/>
    <path id="Trazado_16872" data-name="Trazado 16872" d="M588.963,39.048a.217.217,0,0,1-.193-.087.183.183,0,0,1,.006-.206l.88-1.64a.306.306,0,0,1,.293-.186h1.573a.208.208,0,0,1,.194.079c.031.054.015.129-.047.227L590.536,38.9a.358.358,0,0,1-.307.147Zm-.607,5.6a1.909,1.909,0,0,0,2.547,0,1.754,1.754,0,0,0,.486-1.3,1.783,1.783,0,0,0-.486-1.307,1.891,1.891,0,0,0-2.547,0,1.782,1.782,0,0,0-.486,1.307,1.754,1.754,0,0,0,.486,1.3m3.933,1.194a4.211,4.211,0,0,1-5.319,0,3.606,3.606,0,0,1,0-5,4.208,4.208,0,0,1,5.319,0,3.605,3.605,0,0,1,0,5" transform="translate(628.931 283.155)" fill="#7c858b"/>
    <path id="Trazado_16873" data-name="Trazado 16873" d="M599.241,39.9a2.836,2.836,0,0,1,2.106.806,2.905,2.905,0,0,1,.8,2.14v3.48a.224.224,0,0,1-.253.253H600.4c-.178,0-.267-.085-.267-.253V43.114a1.55,1.55,0,0,0-.38-1.093,1.319,1.319,0,0,0-1.02-.413,1.484,1.484,0,0,0-1.073.392,1.392,1.392,0,0,0-.406,1.047v3.28a.224.224,0,0,1-.254.253h-1.493a.224.224,0,0,1-.253-.253V42.141a.459.459,0,0,0-.52-.52,2.654,2.654,0,0,0-.293.04c-.2,0-.293-.071-.293-.213V40.354a.278.278,0,0,1,.2-.293,2.637,2.637,0,0,1,.959-.16,1.659,1.659,0,0,1,1.6.84,3.154,3.154,0,0,1,2.333-.84" transform="translate(628.931 283.155)" fill="#7c858b"/>
    <path id="Trazado_16874" data-name="Trazado 16874" d="M603.62,45.04a1.23,1.23,0,0,1,1.612,0,.934.934,0,0,1,.34.727,1.893,1.893,0,0,1-.319.866l-.8,1.453a.326.326,0,0,1-.306.16h-.587q-.306,0-.187-.294l.573-1.292a.906.906,0,0,1-.666-.893.932.932,0,0,1,.341-.727" transform="translate(628.931 283.155)" fill="#7c858b"/>
    <path id="Trazado_16875" data-name="Trazado 16875" d="M615.077,46.779a5.035,5.035,0,0,1-3.653-1.339,5.2,5.2,0,0,1,0-7.066,5.576,5.576,0,0,1,6.772-.366,4.274,4.274,0,0,1,1.627,2.612c.026.179-.054.267-.24.267h-1.64a.293.293,0,0,1-.293-.213,2.515,2.515,0,0,0-.947-1.32,2.741,2.741,0,0,0-1.613-.466,2.822,2.822,0,0,0-2.126.833,3.377,3.377,0,0,0,0,4.379,2.836,2.836,0,0,0,2.126.826,2.759,2.759,0,0,0,1.607-.466,2.5,2.5,0,0,0,.953-1.307.3.3,0,0,1,.293-.226h1.64c.186,0,.266.089.24.266a4.191,4.191,0,0,1-1.62,2.619,5.053,5.053,0,0,1-3.126.967" transform="translate(628.931 283.155)" fill="#7c858b"/>
    <path id="Trazado_16876" data-name="Trazado 16876" d="M621.556,46.58a.223.223,0,0,1-.253-.253V40.368a.224.224,0,0,1,.253-.254h1.493a.224.224,0,0,1,.253.254v5.959a.223.223,0,0,1-.253.253Zm1.593-7.972a1.28,1.28,0,0,1-1.693,0,1.035,1.035,0,0,1-.34-.786,1.016,1.016,0,0,1,.34-.78,1.3,1.3,0,0,1,1.693,0,1.017,1.017,0,0,1,.34.78,1.035,1.035,0,0,1-.34.786" transform="translate(628.931 283.155)" fill="#7c858b"/>
    <path id="Trazado_16877" data-name="Trazado 16877" d="M626.582,42.794h3.186a1.436,1.436,0,0,0-.44-1.02,1.5,1.5,0,0,0-1.08-.394,1.658,1.658,0,0,0-1.113.394,1.6,1.6,0,0,0-.553,1.02m1.733,4a3.734,3.734,0,0,1-2.653-.946,3.251,3.251,0,0,1-1.013-2.493,3.32,3.32,0,0,1,.98-2.506A3.533,3.533,0,0,1,628.2,39.9a3.444,3.444,0,0,1,2.539.933,3.32,3.32,0,0,1,.94,2.466c0,.054,0,.132-.007.234s-.006.175-.006.22a.253.253,0,0,1-.28.226h-4.786a1.668,1.668,0,0,0,.633.946,1.85,1.85,0,0,0,1.127.347,1.4,1.4,0,0,0,1.093-.4.539.539,0,0,1,.32-.134h1.493a.254.254,0,0,1,.207.074.174.174,0,0,1,.006.193,2.673,2.673,0,0,1-1.186,1.307,3.91,3.91,0,0,1-1.973.48" transform="translate(628.931 283.155)" fill="#7c858b"/>
    <path id="Trazado_16878" data-name="Trazado 16878" d="M637.633,39.9a2.84,2.84,0,0,1,2.107.806,2.909,2.909,0,0,1,.8,2.14v3.48a.224.224,0,0,1-.254.253h-1.493c-.178,0-.266-.085-.266-.253V43.114a1.55,1.55,0,0,0-.381-1.093,1.319,1.319,0,0,0-1.02-.413,1.483,1.483,0,0,0-1.073.392,1.4,1.4,0,0,0-.406,1.047v3.28a.224.224,0,0,1-.253.253H633.9a.224.224,0,0,1-.253-.253V42.141a.459.459,0,0,0-.52-.52,2.654,2.654,0,0,0-.293.04c-.2,0-.293-.071-.293-.213V40.354a.278.278,0,0,1,.2-.293,2.638,2.638,0,0,1,.96-.16,1.659,1.659,0,0,1,1.6.84,3.154,3.154,0,0,1,2.333-.84" transform="translate(628.931 283.155)" fill="#7c858b"/>
    <path id="Trazado_16879" data-name="Trazado 16879" d="M645.445,46.793a3.727,3.727,0,0,1-2.659-.946,3.605,3.605,0,0,1,0-5,4.189,4.189,0,0,1,4.9-.294,2.737,2.737,0,0,1,1.12,1.759c.026.179-.049.267-.226.267h-1.427a.3.3,0,0,1-.28-.213,1.221,1.221,0,0,0-.528-.62,1.681,1.681,0,0,0-.9-.234,1.664,1.664,0,0,0-1.265.507,1.863,1.863,0,0,0-.48,1.334,1.835,1.835,0,0,0,.48,1.326,1.673,1.673,0,0,0,1.265.5,1.75,1.75,0,0,0,.907-.227,1.131,1.131,0,0,0,.52-.626.318.318,0,0,1,.28-.214h1.427c.177,0,.252.089.226.267a2.742,2.742,0,0,1-1.12,1.76,3.738,3.738,0,0,1-2.24.653" transform="translate(628.931 283.155)" fill="#7c858b"/>
    <path id="Trazado_16880" data-name="Trazado 16880" d="M650.418,46.58a.223.223,0,0,1-.253-.253V40.368a.224.224,0,0,1,.253-.254h1.493a.225.225,0,0,1,.254.254v5.959a.224.224,0,0,1-.254.253Zm1.593-7.972a1.28,1.28,0,0,1-1.693,0,1.039,1.039,0,0,1-.34-.786,1.02,1.02,0,0,1,.34-.78,1.3,1.3,0,0,1,1.693,0,1.02,1.02,0,0,1,.34.78,1.039,1.039,0,0,1-.34.786" transform="translate(628.931 283.155)" fill="#7c858b"/>
    <path id="Trazado_16881" data-name="Trazado 16881" d="M657.176,45.234a1.546,1.546,0,0,0,1.213-.527,2.212,2.212,0,0,0,0-2.719,1.543,1.543,0,0,0-1.213-.527,1.6,1.6,0,0,0-1.24.527,2.165,2.165,0,0,0,0,2.719,1.6,1.6,0,0,0,1.24.527m4.959,1.12a.235.235,0,0,1-.213.28,3.615,3.615,0,0,1-1,.16,1.753,1.753,0,0,1-1.68-.813,3.3,3.3,0,0,1-2.239.813,3.459,3.459,0,0,1-2.527-.961,3.643,3.643,0,0,1,0-4.972A3.459,3.459,0,0,1,657,39.9a2.988,2.988,0,0,1,1.892.613v-.146a.225.225,0,0,1,.254-.254h1.466a.225.225,0,0,1,.254.254v4.186c0,.346.146.52.439.52a1.844,1.844,0,0,0,.414-.041c.178-.017.27.054.28.214Z" transform="translate(628.931 283.155)" fill="#7c858b"/>
    <path id="Trazado_16882" data-name="Trazado 16882" d="M532.134,52.066a.205.205,0,0,1,.193.08.239.239,0,0,1-.007.213L529,59.745a3.138,3.138,0,0,1-2.973,2.107,5.353,5.353,0,0,1-1.573-.214.222.222,0,0,1-.2-.28l.174-1.146c.044-.179.142-.249.293-.214a4.679,4.679,0,0,0,1.013.12,1.393,1.393,0,0,0,1.386-.866l.28-.6-3.159-6.292a.194.194,0,0,1-.007-.213.244.244,0,0,1,.207-.08h1.586a.328.328,0,0,1,.294.187l2.066,4.159,1.866-4.159a.292.292,0,0,1,.293-.187Z" transform="translate(628.931 283.155)" fill="#7c858b"/>
    <path id="Trazado_16883" data-name="Trazado 16883" d="M544.584,49.2a.223.223,0,0,1,.253.253V50.72a.224.224,0,0,1-.253.254h-2.919v7.305a.224.224,0,0,1-.254.253h-1.586a.223.223,0,0,1-.253-.253V50.974h-2.92a.224.224,0,0,1-.253-.254V49.454a.223.223,0,0,1,.253-.253Z" transform="translate(628.931 283.155)" fill="#7c858b"/>
    <path id="Trazado_16884" data-name="Trazado 16884" d="M546.837,54.746h3.186a1.436,1.436,0,0,0-.44-1.02,1.5,1.5,0,0,0-1.08-.394,1.658,1.658,0,0,0-1.113.394,1.6,1.6,0,0,0-.553,1.02m1.733,4a3.729,3.729,0,0,1-2.653-.946,3.253,3.253,0,0,1-1.013-2.493,3.321,3.321,0,0,1,.98-2.506,3.533,3.533,0,0,1,2.566-.947,3.448,3.448,0,0,1,2.54.933,3.325,3.325,0,0,1,.939,2.466c0,.054,0,.132-.007.234s-.006.176-.006.22a.252.252,0,0,1-.28.226H546.85a1.668,1.668,0,0,0,.633.946,1.85,1.85,0,0,0,1.127.347,1.4,1.4,0,0,0,1.093-.4.544.544,0,0,1,.32-.133h1.493a.254.254,0,0,1,.207.073.174.174,0,0,1,.006.193,2.673,2.673,0,0,1-1.186,1.307,3.91,3.91,0,0,1-1.973.48" transform="translate(628.931 283.155)" fill="#7c858b"/>
    <path id="Trazado_16885" data-name="Trazado 16885" d="M556.649,58.745a3.721,3.721,0,0,1-2.659-.946,3.605,3.605,0,0,1,0-5,4.189,4.189,0,0,1,4.9-.294,2.728,2.728,0,0,1,1.119,1.76c.027.178-.049.266-.226.266h-1.427a.3.3,0,0,1-.28-.213,1.235,1.235,0,0,0-.526-.62,1.692,1.692,0,0,0-.9-.233,1.666,1.666,0,0,0-1.267.506,1.866,1.866,0,0,0-.479,1.334,1.837,1.837,0,0,0,.479,1.326,1.673,1.673,0,0,0,1.267.5,1.749,1.749,0,0,0,.906-.227,1.119,1.119,0,0,0,.52-.626.319.319,0,0,1,.28-.214h1.427c.177,0,.253.09.226.267a2.733,2.733,0,0,1-1.119,1.76,3.738,3.738,0,0,1-2.24.653" transform="translate(628.931 283.155)" fill="#7c858b"/>
    <path id="Trazado_16886" data-name="Trazado 16886" d="M565.954,51.853a2.836,2.836,0,0,1,2.106.806,2.905,2.905,0,0,1,.8,2.14v3.48a.224.224,0,0,1-.253.253h-1.493c-.178,0-.267-.085-.267-.253V55.066a1.552,1.552,0,0,0-.38-1.093,1.319,1.319,0,0,0-1.02-.413,1.483,1.483,0,0,0-1.073.392A1.392,1.392,0,0,0,563.968,55v3.28a.224.224,0,0,1-.254.253h-1.493a.224.224,0,0,1-.253-.253V54.093a.459.459,0,0,0-.52-.52,2.621,2.621,0,0,0-.293.04c-.2,0-.293-.071-.293-.213V52.306a.278.278,0,0,1,.2-.293,2.636,2.636,0,0,1,.959-.16,1.66,1.66,0,0,1,1.6.84,3.152,3.152,0,0,1,2.333-.84" transform="translate(628.931 283.155)" fill="#7c858b"/>
    <path id="Trazado_16887" data-name="Trazado 16887" d="M572.492,56.6a1.909,1.909,0,0,0,2.547,0,1.754,1.754,0,0,0,.486-1.3A1.783,1.783,0,0,0,575.039,54a1.891,1.891,0,0,0-2.547,0,1.783,1.783,0,0,0-.486,1.307,1.754,1.754,0,0,0,.486,1.3m3.933,1.194a4.211,4.211,0,0,1-5.319,0,3.605,3.605,0,0,1,0-5,4.208,4.208,0,0,1,5.319,0,3.608,3.608,0,0,1,0,5" transform="translate(628.931 283.155)" fill="#7c858b"/>
    <path id="Trazado_16888" data-name="Trazado 16888" d="M580.831,58.745a2.375,2.375,0,0,1-1.486-.427,1.385,1.385,0,0,1-.553-1.159V48.92a.224.224,0,0,1,.253-.253h1.493a.224.224,0,0,1,.253.253v7.6q0,.505.453.506a1.762,1.762,0,0,0,.4-.04c.178-.017.271.053.28.213l.134,1.107a.236.236,0,0,1-.214.28,3.512,3.512,0,0,1-1.013.16" transform="translate(628.931 283.155)" fill="#7c858b"/>
    <path id="Trazado_16889" data-name="Trazado 16889" d="M585.3,56.6a1.909,1.909,0,0,0,2.547,0,1.754,1.754,0,0,0,.486-1.3A1.782,1.782,0,0,0,587.85,54a1.891,1.891,0,0,0-2.547,0,1.783,1.783,0,0,0-.486,1.307,1.754,1.754,0,0,0,.486,1.3m3.933,1.194a4.211,4.211,0,0,1-5.319,0,3.605,3.605,0,0,1,0-5,4.208,4.208,0,0,1,5.319,0,3.606,3.606,0,0,1,0,5" transform="translate(628.931 283.155)" fill="#7c858b"/>
    <path id="Trazado_16890" data-name="Trazado 16890" d="M595.016,57.145a1.555,1.555,0,0,0,1.213-.52,2.162,2.162,0,0,0-.008-2.692,1.558,1.558,0,0,0-1.205-.521,1.613,1.613,0,0,0-1.235.527,2.107,2.107,0,0,0-.005,2.686,1.608,1.608,0,0,0,1.24.52m3.439-5.079a.224.224,0,0,1,.253.254v6.372a2.91,2.91,0,0,1-.987,2.286,3.76,3.76,0,0,1-2.586.874,4.14,4.14,0,0,1-2.406-.667,2.658,2.658,0,0,1-1.166-1.773c-.045-.169.034-.254.239-.254h1.493a.327.327,0,0,1,.294.2,1.12,1.12,0,0,0,.546.633,1.974,1.974,0,0,0,.987.234,1.578,1.578,0,0,0,1.146-.413,1.473,1.473,0,0,0,.427-1.107v-.56a2.992,2.992,0,0,1-1.854.573,3.443,3.443,0,0,1-2.518-.966,3.583,3.583,0,0,1,0-4.939,3.458,3.458,0,0,1,2.518-.96,2.985,2.985,0,0,1,1.893.613V52.32a.225.225,0,0,1,.255-.254Z" transform="translate(628.931 283.155)" fill="#7c858b"/>
    <path id="Trazado_16891" data-name="Trazado 16891" d="M600.707,51a.219.219,0,0,1-.193-.087.185.185,0,0,1,.007-.206l.88-1.64a.307.307,0,0,1,.293-.187h1.573a.2.2,0,0,1,.193.081c.032.053.016.128-.046.226l-1.133,1.666a.355.355,0,0,1-.307.147Zm1.414,1.066a.224.224,0,0,1,.253.254v5.959a.224.224,0,0,1-.253.253h-1.494a.223.223,0,0,1-.252-.253V52.32a.224.224,0,0,1,.252-.254Z" transform="translate(628.931 283.155)" fill="#7c858b"/>
    <path id="Trazado_16892" data-name="Trazado 16892" d="M607.386,57.186a1.545,1.545,0,0,0,1.213-.527,1.963,1.963,0,0,0,.467-1.353,1.983,1.983,0,0,0-.467-1.366,1.541,1.541,0,0,0-1.213-.527,1.6,1.6,0,0,0-1.24.527,1.948,1.948,0,0,0-.48,1.366,1.929,1.929,0,0,0,.48,1.353,1.6,1.6,0,0,0,1.24.527m4.959,1.12a.235.235,0,0,1-.213.28,3.615,3.615,0,0,1-1,.16,1.753,1.753,0,0,1-1.68-.813,3.3,3.3,0,0,1-2.239.813,3.454,3.454,0,0,1-2.527-.961,3.646,3.646,0,0,1,0-4.972,3.457,3.457,0,0,1,2.527-.96,2.993,2.993,0,0,1,1.893.613V52.32a.224.224,0,0,1,.253-.254h1.466a.225.225,0,0,1,.254.254v4.186c0,.346.146.52.44.52a1.842,1.842,0,0,0,.413-.041c.178-.017.271.054.28.214Z" transform="translate(628.931 283.155)" fill="#7c858b"/>
    <path id="Trazado_16893" data-name="Trazado 16893" d="M509.292,58.505V55.789h2.816V53.123h-8.3v2.666h2.817v2.716h-4.564l-2.945-6.722a2.543,2.543,0,0,0,.056-3.693l2.874-5.183,2.617,3.432-1.554,1.185,1.617,2.12,4.995-3.809-1.618-2.12-1.32,1.007-6.818-8.94,1.321-1.007-1.617-2.119-4.994,3.808,1.617,2.12,1.553-1.185,2.435,3.193-3.854,6.953a2.552,2.552,0,0,0,0,4.736l2.726,6.224H492.8v6.22h2.666V61.171h15.312v3.554h2.667v-6.22Z" transform="translate(628.931 283.155)" fill="#7c858b"/>
  </g>
</svg>
