<svg id="Grupo_8268" data-name="Grupo 8268" xmlns="http://www.w3.org/2000/svg" width="81.258" height="81.194" viewBox="0 0 81.258 81.194">
  <g id="logo_jal_white">
    <path id="Trazado_16107" data-name="Trazado 16107" d="M732.125,1005.867l-23.562-23.543a17.046,17.046,0,0,1,0-24.119l23.562-23.542a17.077,17.077,0,0,1,24.137,0L779.824,958.2a17.045,17.045,0,0,1,0,24.119l-23.562,23.543a17.078,17.078,0,0,1-24.137,0" transform="translate(-703.565 -929.667)" fill="#fff"/>
    <g id="Grupo_4416" data-name="Grupo 4416" transform="translate(17.054 13.305)">
      <path id="Trazado_16108" data-name="Trazado 16108" d="M773.639,1045.031a.222.222,0,0,1-.161.241,2.974,2.974,0,0,1-.909.16,1.555,1.555,0,0,1-1.551-.828,3.253,3.253,0,0,1-2.206.828,3.527,3.527,0,0,1-2.547-.955,3.515,3.515,0,0,1,0-4.9,3.529,3.529,0,0,1,2.547-.955,3.138,3.138,0,0,1,1.885.589v-.188a.177.177,0,0,1,.2-.2h1.23a.178.178,0,0,1,.2.2v4.489a.5.5,0,0,0,.127.361.45.45,0,0,0,.341.134,2.657,2.657,0,0,0,.5-.054c.143-.026.223.027.241.16Zm-4.814-.935a1.728,1.728,0,0,0,1.35-.581,2.388,2.388,0,0,0,0-2.979,1.733,1.733,0,0,0-1.35-.581,1.813,1.813,0,0,0-1.385.581,2.323,2.323,0,0,0,0,2.979,1.808,1.808,0,0,0,1.385.581" transform="translate(-756.882 -1007.038)" fill="#7b868c"/>
      <path id="Trazado_16109" data-name="Trazado 16109" d="M789.743,1041.38a2.125,2.125,0,0,1-1.357-.407,1.3,1.3,0,0,1-.515-1.076v-7.97a.178.178,0,0,1,.2-.2H789.3a.177.177,0,0,1,.2.2v7.529a.5.5,0,0,0,.127.36.449.449,0,0,0,.341.133,2.67,2.67,0,0,0,.495-.053c.142-.027.223.027.24.161l.107.921a.205.205,0,0,1-.16.241,2.97,2.97,0,0,1-.909.161" transform="translate(-770.165 -1002.986)" fill="#7b868c"/>
      <path id="Trazado_16110" data-name="Trazado 16110" d="M797.837,1033.031a1.016,1.016,0,0,1-.721-.274.889.889,0,0,1,0-1.323,1.082,1.082,0,0,1,1.437,0,.878.878,0,0,1,0,1.323,1.026,1.026,0,0,1-.715.274m1.056,8.016a2.123,2.123,0,0,1-1.357-.407,1.3,1.3,0,0,1-.515-1.076v-4.93a.177.177,0,0,1,.2-.2h1.23a.178.178,0,0,1,.2.2v4.489a.5.5,0,0,0,.127.361.448.448,0,0,0,.341.133,2.664,2.664,0,0,0,.495-.053c.142-.027.223.027.241.161l.107.921a.205.205,0,0,1-.16.241,2.979,2.979,0,0,1-.91.161" transform="translate(-775.425 -1002.653)" fill="#7b868c"/>
      <path id="Trazado_16111" data-name="Trazado 16111" d="M808.788,1045.433a3.882,3.882,0,0,1-2.2-.561,2.19,2.19,0,0,1-.983-1.563q-.027-.214.2-.215l1.123.014a.213.213,0,0,1,.214.173q.293.895,1.644.9a1.919,1.919,0,0,0,.936-.2.594.594,0,0,0,.362-.521.6.6,0,0,0-.442-.568,4.285,4.285,0,0,0-1.064-.261q-.62-.079-1.244-.214a2.116,2.116,0,0,1-1.062-.568,1.6,1.6,0,0,1-.441-1.2,1.733,1.733,0,0,1,.775-1.47,3.416,3.416,0,0,1,2.046-.561,3.556,3.556,0,0,1,1.979.521,1.959,1.959,0,0,1,.936,1.376c.018.143-.049.214-.2.214h-1.123c-.115,0-.187-.04-.214-.12a1.054,1.054,0,0,0-.5-.581,1.713,1.713,0,0,0-.876-.221,1.759,1.759,0,0,0-.876.188.557.557,0,0,0-.327.494.618.618,0,0,0,.314.548,1.8,1.8,0,0,0,.776.254q.461.054,1.009.167a9.023,9.023,0,0,1,1.009.267,1.6,1.6,0,0,1,.776.568,1.7,1.7,0,0,1,.314,1.056,1.782,1.782,0,0,1-.789,1.509,3.439,3.439,0,0,1-2.073.575" transform="translate(-780.586 -1007.038)" fill="#7b868c"/>
      <path id="Trazado_16112" data-name="Trazado 16112" d="M825.8,1045.433a3.572,3.572,0,0,1-2.581-.936,3.618,3.618,0,0,1,0-4.943,4.009,4.009,0,0,1,4.727-.307,2.646,2.646,0,0,1,1.09,1.671c.026.143-.031.214-.174.214h-1.271a.213.213,0,0,1-.214-.174,1.289,1.289,0,0,0-.575-.688,1.893,1.893,0,0,0-1-.26,1.84,1.84,0,0,0-1.4.555,2.29,2.29,0,0,0,0,2.926,1.837,1.837,0,0,0,1.4.555,1.892,1.892,0,0,0,1-.261,1.288,1.288,0,0,0,.575-.688.213.213,0,0,1,.214-.174h1.271c.143,0,.2.072.174.214a2.645,2.645,0,0,1-1.09,1.67,3.588,3.588,0,0,1-2.146.628" transform="translate(-790.368 -1007.038)" fill="#7b868c"/>
      <path id="Trazado_16113" data-name="Trazado 16113" d="M846.856,1044.5a4.045,4.045,0,0,1-5.175,0,3.6,3.6,0,0,1,0-4.943,4.047,4.047,0,0,1,5.175,0,3.6,3.6,0,0,1,0,4.943m-3.992-1.015a2.073,2.073,0,0,0,2.808,0,2.25,2.25,0,0,0,0-2.912,2.075,2.075,0,0,0-2.808,0,2.25,2.25,0,0,0,0,2.912" transform="translate(-801.212 -1007.038)" fill="#7b868c"/>
      <path id="Trazado_16114" data-name="Trazado 16114" d="M752.031,1031.971a.2.2,0,0,1,.2.2v5.771a3.475,3.475,0,0,1-.99,2.632,4.348,4.348,0,0,1-5.208.161,2.981,2.981,0,0,1-1.1-2.1c-.018-.142.049-.213.2-.213h1.31a.188.188,0,0,1,.2.187,1.547,1.547,0,0,0,.635,1.028,2.191,2.191,0,0,0,1.331.388,1.753,1.753,0,0,0,1.377-.588,2.25,2.25,0,0,0,.522-1.55v-4.012c0-.535-.572-.651-.923-.672h-.1a.163.163,0,0,1-.163-.163v-.91a.163.163,0,0,1,.163-.163Z" transform="translate(-744.928 -1003.129)" fill="#7b868c"/>
      <path id="Trazado_16115" data-name="Trazado 16115" d="M753.938,1063.37a.916.916,0,0,1,.952.664h-.349a.607.607,0,0,0-.607-.345.77.77,0,0,0,0,1.536.6.6,0,0,0,.686-.552h-.661v-.3h.994a1,1,0,0,1-1.019,1.172,1.088,1.088,0,0,1,0-2.176" transform="translate(-749.592 -1021.592)" fill="#7b868c"/>
      <path id="Trazado_16116" data-name="Trazado 16116" d="M760.277,1065.546a1.088,1.088,0,1,1,1.086-1.088,1.035,1.035,0,0,1-1.086,1.088m.007-.333a.757.757,0,1,0-.724-.754.7.7,0,0,0,.724.754" transform="translate(-753.316 -1021.592)" fill="#7b868c"/>
      <path id="Trazado_16117" data-name="Trazado 16117" d="M767.345,1064.454a.485.485,0,0,1,.344.491.6.6,0,0,1-.673.612h-.95v-2.121h.861a.589.589,0,0,1,.667.6.441.441,0,0,1-.249.415m-.927-.712v.6h.485c.2,0,.343-.085.346-.291s-.139-.306-.346-.306Zm0,.885v.621h.576a.316.316,0,0,0,.236-.554.438.438,0,0,0-.275-.067Z" transform="translate(-757.351 -1021.631)" fill="#7b868c"/>
      <path id="Trazado_16118" data-name="Trazado 16118" d="M772.309,1065.273v.285h-1.025v-.285h.337v-1.555h-.31v-.282h.971v.282h-.31v1.555Z" transform="translate(-760.417 -1021.631)" fill="#7b868c"/>
      <path id="Trazado_16119" data-name="Trazado 16119" d="M776.637,1063.745H775.7v.561h.886v.312H775.7v.618h.955v.321h-1.31v-2.121h1.292Z" transform="translate(-762.804 -1021.631)" fill="#7b868c"/>
      <path id="Trazado_16120" data-name="Trazado 16120" d="M781.94,1065.506v.052h-.358l-.528-.74h-.467v.74h-.355v-2.122h.876a.685.685,0,0,1,.737.691.664.664,0,0,1-.446.636Zm-.834-.979a.392.392,0,1,0,0-.785h-.524v.785Z" transform="translate(-765.676 -1021.631)" fill="#7b868c"/>
      <path id="Trazado_16121" data-name="Trazado 16121" d="M786.217,1064.107l.024.673v.77h-.349v-2.127h.127l1.289,1.427-.024-.648v-.773h.351v2.124h-.121Z" transform="translate(-769.003 -1021.623)" fill="#7b868c"/>
      <path id="Trazado_16122" data-name="Trazado 16122" d="M792.82,1065.546a1.088,1.088,0,1,1,1.085-1.088,1.034,1.034,0,0,1-1.085,1.088m.006-.333a.757.757,0,1,0-.724-.754.7.7,0,0,0,.724.754" transform="translate(-772.442 -1021.592)" fill="#7b868c"/>
      <path id="Trazado_16123" data-name="Trazado 16123" d="M801.87,1063.444a1.059,1.059,0,0,1,0,2.118H801.1v-2.118Zm-.006,1.8a.741.741,0,0,0,0-1.478h-.412v1.478Z" transform="translate(-777.942 -1021.636)" fill="#7b868c"/>
      <path id="Trazado_16124" data-name="Trazado 16124" d="M808.4,1063.745h-.937v.561h.886v.312h-.886v.618h.955v.321h-1.31v-2.121H808.4Z" transform="translate(-781.47 -1021.631)" fill="#7b868c"/>
      <path id="Trazado_16125" data-name="Trazado 16125" d="M812.35,1065.239h.913v.318H812v-2.122h.354Z" transform="translate(-784.343 -1021.631)" fill="#7b868c"/>
      <path id="Trazado_16126" data-name="Trazado 16126" d="M820.027,1063.745h-.937v.561h.886v.312h-.886v.618h.955v.321h-1.31v-2.121h1.292Z" transform="translate(-788.304 -1021.631)" fill="#7b868c"/>
      <path id="Trazado_16127" data-name="Trazado 16127" d="M823.616,1064.916c.014.239.276.315.506.315s.491-.055.491-.318-.288-.306-.534-.33c-.388-.034-.773-.157-.773-.582s.385-.63.8-.63.785.181.794.615h-.324c-.014-.227-.264-.3-.473-.3-.194,0-.446.067-.446.306s.24.269.485.3c.431.048.825.133.825.621,0,.467-.44.63-.837.63-.416.009-.85-.185-.858-.63Z" transform="translate(-790.97 -1021.593)" fill="#7b868c"/>
      <path id="Trazado_16128" data-name="Trazado 16128" d="M828.444,1063.748v-.312h1.577v.312h-.615v1.809h-.346v-1.809Z" transform="translate(-794.01 -1021.631)" fill="#7b868c"/>
      <path id="Trazado_16129" data-name="Trazado 16129" d="M833.251,1065.1l-.206.44h-.37v-.046l.983-2.091h.164l.976,2.091v.046h-.366l-.209-.44Zm.116-.3h.743l-.37-.848Z" transform="translate(-796.496 -1021.609)" fill="#7b868c"/>
      <path id="Trazado_16130" data-name="Trazado 16130" d="M839.9,1063.444a1.059,1.059,0,0,1,0,2.118h-.768v-2.118Zm-.006,1.8a.741.741,0,0,0,0-1.478h-.413v1.478Z" transform="translate(-800.289 -1021.636)" fill="#7b868c"/>
      <path id="Trazado_16131" data-name="Trazado 16131" d="M845.909,1065.546a1.088,1.088,0,1,1,1.086-1.088,1.035,1.035,0,0,1-1.086,1.088m.006-.333a.757.757,0,1,0-.725-.754.7.7,0,0,0,.725.754" transform="translate(-803.642 -1021.592)" fill="#7b868c"/>
      <path id="Trazado_16132" data-name="Trazado 16132" d="M800.938,969.6v1.17a1.164,1.164,0,0,1,.474,0h0V969.6a.776.776,0,0,0-.474,0" transform="translate(-777.845 -966.432)" fill="#7b868c"/>
      <path id="Trazado_16133" data-name="Trazado 16133" d="M789.039,965.441a.21.21,0,0,0,.12.169,3.686,3.686,0,0,0,1.549.353,3.562,3.562,0,0,0,2.021-.647,2.793,2.793,0,0,1,2.878-.12,1.07,1.07,0,0,1-.76.288h-.179v.416h.179a1.439,1.439,0,0,0,1.249-.649h0l0-.005h0a.206.206,0,0,0,.027-.1v-2.476a.205.205,0,0,0-.091-.172,3.208,3.208,0,0,0-3.541,0,3.108,3.108,0,0,1-3.159.26.208.208,0,0,0-.223.347l1.352,1.167-1.34.983a.208.208,0,0,0-.084.188m1.88-.991a.207.207,0,0,0,.013-.325l-.795-.687a3.5,3.5,0,0,0,2.591-.6,2.786,2.786,0,0,1,2.98-.059v2a3.219,3.219,0,0,0-3.215.193,3.092,3.092,0,0,1-2.823.4Z" transform="translate(-770.851 -961.964)" fill="#7b868c"/>
      <path id="Trazado_16134" data-name="Trazado 16134" d="M800.293,965.209h.474v-.45h.45v-.473h-.45v-.45h-.474v.45h-.451v.473h.451Z" transform="translate(-777.201 -963.064)" fill="#7b868c"/>
      <path id="Trazado_16135" data-name="Trazado 16135" d="M793.4,987.724c.15-.177.308-.357.46-.53a10.3,10.3,0,0,0,1.69-2.345,4.163,4.163,0,0,0,.4-2.317,3.634,3.634,0,0,0-2.167-2.86,1.668,1.668,0,0,0,.235-1.072v-.009a.227.227,0,0,0-.386-.133.884.884,0,0,1-.926.206l-.032-.012a4.336,4.336,0,0,0-2.18-.237c0-.011,0-.021,0-.032a1.456,1.456,0,0,0-.075-.463.227.227,0,0,0-.329-.125.6.6,0,0,1-.3.079.549.549,0,0,1-.07,0c-.126-.012-.236-.018-.336-.018a3.458,3.458,0,0,0-.479.034,3.375,3.375,0,0,0-.9.256,3.314,3.314,0,0,0-.409.215,3.348,3.348,0,0,0-.376.266,3.4,3.4,0,0,0-.337.312c-.067.07-.133.143-.194.22s-.114.156-.167.237c-.109.165-.2.338-.314.5l-.035.052-.019.026c0,.005-.018.019-.018.024l0,0-.008.01c-.032.044-.066.088-.1.13s-.075.092-.116.136c-.059.067-.122.131-.187.194l-.075.07q-.068.064-.139.121l-.04.033-.692-.477-.11-.663c.047-.073.09-.146.129-.219l.025-.042c.021-.041.038-.082.057-.123l.014-.034.045-.106c.005-.014.012-.028.018-.042s.011-.032.017-.049l.2-.042.155-1.128v0l-.21-.051c0-.035-.007-.072-.014-.108s-.015-.094-.027-.14a1.786,1.786,0,0,0-.145-.387l-.009-.026a1.443,1.443,0,0,0-.816-.712l-.028-.009.013-.032c.01-.025.02-.05.031-.074a1.433,1.433,0,0,1,.653-.689,2.188,2.188,0,0,1,.073.208.2.2,0,0,0,.216.138.355.355,0,0,0,.164-.061.693.693,0,0,0,.2-.215,1.532,1.532,0,0,0,.108-1.42,1.009,1.009,0,0,0-.869-.634.922.922,0,0,0-.381.067,1.1,1.1,0,0,0-1.992,0,.926.926,0,0,0-.381-.067,1.011,1.011,0,0,0-.869.634,1.535,1.535,0,0,0,.107,1.42.7.7,0,0,0,.2.215.356.356,0,0,0,.164.061.2.2,0,0,0,.215-.138s.025-.087.073-.208a1.436,1.436,0,0,1,.654.689l.03.074.013.032-.028.009a1.443,1.443,0,0,0-.816.712c0,.009-.006.016-.01.026a1.787,1.787,0,0,0-.144.387c-.012.046-.018.093-.027.14s-.009.073-.014.108l-.211.051v0h0l.155,1.128.2.042c.005.017.011.033.016.049s.013.028.018.042c.014.035.028.07.045.106l.013.034c.019.041.037.082.057.123l.026.042c.04.074.084.148.131.222l-.109.659-.7.479a3.721,3.721,0,0,1-.381-.353l-.062-.068c-.077-.086-.149-.176-.216-.267l-.01-.013c0-.005-.014-.019-.018-.024l-.019-.026-.035-.052c-.109-.163-.205-.337-.314-.5-.053-.081-.106-.162-.167-.237s-.127-.15-.195-.22a3.261,3.261,0,0,0-.337-.312,3.494,3.494,0,0,0-.784-.481,3.459,3.459,0,0,0-.438-.159,3.424,3.424,0,0,0-.462-.1,3.471,3.471,0,0,0-.479-.034c-.1,0-.211.007-.336.018a.563.563,0,0,1-.071,0,.607.607,0,0,1-.3-.079.226.226,0,0,0-.194-.016.229.229,0,0,0-.135.141,1.454,1.454,0,0,0-.075.463c0,.015,0,.03,0,.045a4.35,4.35,0,0,0-2.265.224l-.032.012a.883.883,0,0,1-.926-.206.227.227,0,0,0-.386.133v.009a1.666,1.666,0,0,0,.235,1.072,3.633,3.633,0,0,0-2.167,2.86,4.152,4.152,0,0,0,.4,2.317,10.269,10.269,0,0,0,1.69,2.345c.152.173.31.353.458.53q.075.09.157.183a2.663,2.663,0,0,1,.827,1.445.771.771,0,0,1-.839.838.952.952,0,0,1-.321-.056.436.436,0,0,0-.127-.025v0a.519.519,0,0,0-.556.346.446.446,0,0,0-.122.017.455.455,0,0,0-.33.484l0,.024a2.64,2.64,0,0,0,2.568,2.33h.035a2.7,2.7,0,0,0,1.62-.568l.014.015a.458.458,0,0,0,.588.051,2.862,2.862,0,0,0,.858-.964l0,0,.049-.094c.015.026.03.053.045.079.031.052.062.1.1.154a6.842,6.842,0,0,0,11.187,0c.033-.051.065-.1.095-.154.016-.026.031-.053.046-.079.016.032.031.063.049.094l0,0a2.871,2.871,0,0,0,.858.964.46.46,0,0,0,.265.084.452.452,0,0,0,.323-.134l.014-.015a2.707,2.707,0,0,0,1.621.568h.035a2.64,2.64,0,0,0,2.568-2.33l0-.024a.454.454,0,0,0-.33-.484.446.446,0,0,0-.122-.017.519.519,0,0,0-.556-.346v0a.44.44,0,0,0-.127.025.955.955,0,0,1-.322.056.77.77,0,0,1-.838-.838,2.659,2.659,0,0,1,.827-1.445c.054-.062.107-.123.156-.183m-2.271-8.9a3.894,3.894,0,0,1,1.386.254l.035.014a1.339,1.339,0,0,0,.758.047,1.365,1.365,0,0,0,.243-.081,1.24,1.24,0,0,1-.2.456,6.493,6.493,0,0,0-.893-.111,3.262,3.262,0,0,0-2.775,1.549.5.5,0,0,0-.491-.347H787.86a3.89,3.89,0,0,1,3.271-1.78m.472,5.587a1.136,1.136,0,0,0,.038.107,1.354,1.354,0,0,0,1.3.845H793c-.985,1-2.36,1.539-3.3,2.585v-3.6c.041-.038.073-.068.1-.1.267-.275.509-.583.784-.854a2.619,2.619,0,0,1,1.47-.835,1.124,1.124,0,0,1,.694.081.644.644,0,0,1,.269.286.631.631,0,0,1-.128.712.5.5,0,0,1-.059.046.667.667,0,0,1-.312.115.512.512,0,0,1-.219-.023.546.546,0,0,0-.26-.036.5.5,0,0,0-.347.189.526.526,0,0,0-.087.482m-6.713-6.291-.043.4-.007,0h0l-.219.045-.211.043v-.6l.268.064.213.05M783.28,979.3h.007l1.153-.248h0a2.559,2.559,0,0,1-.154.265q-.059.088-.127.171a1.034,1.034,0,0,1-1.752,0c-.045-.056-.087-.113-.127-.171a2.571,2.571,0,0,1-.154-.265h0Zm-.679-.6v-.8l.461-.11V978.8Zm.9.1v-1.005l.461.11v.8Zm-1.5-3.653a.956.956,0,0,1,.332-.321,1.465,1.465,0,0,0-.87.428,1.106,1.106,0,0,1,0-.873.548.548,0,0,1,.47-.355.9.9,0,0,1,.461.116,1.379,1.379,0,0,1,.692.9,1.439,1.439,0,0,0-.3-1.025,1.212,1.212,0,0,0-.117-.136.647.647,0,0,1,1.22,0,1.259,1.259,0,0,0-.117.136,1.439,1.439,0,0,0-.295,1.025,1.382,1.382,0,0,1,.692-.9.9.9,0,0,1,.46-.116.547.547,0,0,1,.47.355,1.105,1.105,0,0,1,0,.873,1.465,1.465,0,0,0-.87-.428.96.96,0,0,1,.334.321,1.887,1.887,0,0,0-.859.909l-.035.085-.024.058c-.127-.053-.241-.124-.364-.188h0c-.123.064-.238.135-.364.188-.008-.019-.017-.038-.024-.058s-.023-.058-.036-.085a1.886,1.886,0,0,0-.857-.909m.667,1.634c.1-.036.211-.065.315-.105a2.7,2.7,0,0,0,.3-.157,2.628,2.628,0,0,0,.3.157c.1.04.212.07.315.105a1.157,1.157,0,0,1,.717.82c-1.214-.3-1.3-.319-1.329-.321h-.007c-.03,0-.115.022-1.328.321a1.159,1.159,0,0,1,.717-.82m-.94,1.744h0l-.007,0-.043-.4.213-.05.27-.064v.6l-.212-.043Zm.505,1.926.068-.39.03.025a1.428,1.428,0,0,0,.95.4h0a1.424,1.424,0,0,0,.95-.4l.032-.034.07.4.756.522c-.037.023-.075.045-.113.067a3.792,3.792,0,0,1-1.031.409,2.867,2.867,0,0,1-.668.093,2.961,2.961,0,0,1-.577-.075,3.86,3.86,0,0,1-1.065-.4c-.055-.031-.109-.063-.163-.1Zm-9.063-1.308a1.34,1.34,0,0,0,.758-.047l.035-.014a3.9,3.9,0,0,1,4.657,1.526h-1.332a.5.5,0,0,0-.492.347,3.26,3.26,0,0,0-2.774-1.549,6.5,6.5,0,0,0-.892.111,1.209,1.209,0,0,1-.2-.456,1.336,1.336,0,0,0,.242.081m4.172,11.528c0,.036-.006.073-.011.109,0,.008,0,.016,0,.024,0,.039-.011.077-.018.115v.01a2.452,2.452,0,0,1-.155.5l-.01.021c-.013.028-.026.058-.04.086s-.02.04-.031.06a2.4,2.4,0,0,1-.739.841,2.414,2.414,0,0,0,.36-2.076l0-.006a3.334,3.334,0,0,1-.438,1.4l0,.006a2.187,2.187,0,0,1-1.882,1.092h-.029a2.2,2.2,0,0,1-2.116-1.928v-.009l0-.007a.111.111,0,0,1,.011.015,1.6,1.6,0,0,0,2.937-.773,1.6,1.6,0,0,1-.7.806.142.142,0,0,1-.02.012,1.5,1.5,0,0,1-.282.12,1.2,1.2,0,0,1-1.581-.58c.034.009.068.026.1.038a1.467,1.467,0,0,0,.216.074,1.262,1.262,0,0,0,.245.026,2.13,2.13,0,0,0,.223-.01l.112-.012a.586.586,0,0,0,.08-.016,1.28,1.28,0,0,0,.324-.118,1.138,1.138,0,0,0,.465-.452,1.286,1.286,0,0,0,.125-.319,1.536,1.536,0,0,0,.043-.368c0-.737-.647-1.4-1.091-1.922a13.356,13.356,0,0,1-2.085-2.776,3.734,3.734,0,0,1-.364-2.061,3.105,3.105,0,0,1,3.046-2.737,2.717,2.717,0,0,1,2.759,2.482v1.275l0,0a6.572,6.572,0,0,0-1.054-1.027,2.156,2.156,0,0,0-2.2-.352,1.174,1.174,0,0,0-.393,1.689,1.085,1.085,0,0,0,1.2.386.849.849,0,0,1-1.217.458.945.945,0,0,1-.2-.1,1.665,1.665,0,0,1-.32-.282,1.644,1.644,0,0,1-.136-.173,1.676,1.676,0,0,1-.116-1.729,2.2,2.2,0,0,1,1.313-1.084,2.538,2.538,0,0,1,1.835.221c.079.045.154.1.228.149a1.27,1.27,0,0,1,.182.153,2.03,2.03,0,0,0-1.728-.987,2.4,2.4,0,0,0-1.954.9,2.437,2.437,0,0,0-.47,1.943,4.585,4.585,0,0,0,1.2,1.935,19.649,19.649,0,0,1,2.334,3.16,2.892,2.892,0,0,1,.352,1.443,1.907,1.907,0,0,1-1.817,1.905h-.006a1.986,1.986,0,0,0,.335.029,1.947,1.947,0,0,0,1.719-1.031c.86-1.6-.5-3.222-1.446-4.4-.059-.072-.36-.42-.49-.574l1.1.794c.222.163.444.327.664.5a5.882,5.882,0,0,1,.884.869,3.33,3.33,0,0,1,.762,2.254m-3.86-5.306h.056a1.354,1.354,0,0,0,1.3-.845,1.044,1.044,0,0,0,.039-.107.526.526,0,0,0-.087-.482.5.5,0,0,0-.346-.189.545.545,0,0,0-.259.036.513.513,0,0,1-.219.023.667.667,0,0,1-.312-.115.472.472,0,0,1-.059-.046.631.631,0,0,1-.128-.712.648.648,0,0,1,.269-.286,1.124,1.124,0,0,1,.694-.081,2.614,2.614,0,0,1,1.47.835c.275.271.517.579.784.854.027.027.058.057.1.1v3.6c-.94-1.045-2.315-1.582-3.3-2.584m15.2,5.321c0,.008,0,.016,0,.022a3.025,3.025,0,0,0,.063.407v0a4.978,4.978,0,0,1-.264.5c-.028.047-.057.095-.088.141a6.307,6.307,0,0,1-10.311,0c-.03-.047-.059-.094-.087-.141a5.025,5.025,0,0,1-.264-.5h0a3.033,3.033,0,0,0,.062-.407c0-.007,0-.014,0-.022a3.561,3.561,0,0,0-.508-2.042l0,0v-7.578h2.129c-.27-.454,0,0-.27-.454h0l.014.024a4.344,4.344,0,0,0-2.632-2.1,1,1,0,0,1-.012-.149q0-.041,0-.083a1.055,1.055,0,0,0,.359.023c.113-.01.209-.016.294-.016h.073a3.066,3.066,0,0,1,.479.051,2.913,2.913,0,0,1,.454.124,3.037,3.037,0,0,1,.425.191,2.973,2.973,0,0,1,.387.253,2.974,2.974,0,0,1,.647.682c.11.16.207.329.315.489a4.186,4.186,0,0,0,.353.454c.089.1.183.194.279.284.048.045.1.088.145.13l.015.013c.047.04.095.078.144.116l.02.015c.048.037.1.073.146.108l.02.013c.051.035.1.07.153.1l.011.007a4.226,4.226,0,0,0,.671.344l.034.014c.042.017.085.033.128.048.106.038.214.073.323.1a2.958,2.958,0,0,0,1.768,0c.108-.03.216-.065.322-.1.042-.015.085-.031.128-.048l.034-.014a4.279,4.279,0,0,0,.671-.344l.011-.007c.051-.032.1-.067.152-.1a.139.139,0,0,0,.02-.013c.05-.035.1-.071.146-.108l.02-.015.046-.037h0c.012-.009.023-.02.035-.031l.06-.048.015-.013q.062-.053.122-.11c.007-.007.016-.013.022-.02h0c.1-.09.191-.185.28-.284.06-.067.116-.136.172-.206l.034-.046c.046-.061.091-.122.134-.185l.014-.018c0-.006.007-.013.012-.019.031-.045.06-.091.089-.138.07-.112.139-.224.214-.332a2.984,2.984,0,0,1,.3-.375,3.054,3.054,0,0,1,.343-.308,2.982,2.982,0,0,1,.387-.253,3.1,3.1,0,0,1,.424-.191,2.916,2.916,0,0,1,.456-.124,3.061,3.061,0,0,1,.479-.051h.074c.085,0,.181.005.294.016a1.055,1.055,0,0,0,.359-.023c0,.028,0,.055,0,.083a1.038,1.038,0,0,1-.007.125,4.343,4.343,0,0,0-2.72,2.12l.014-.024h0l-.27.454h2.13v7.578l0,0a3.562,3.562,0,0,0-.508,2.042m3.281-1.329a1.536,1.536,0,0,0,.043.368,1.3,1.3,0,0,0,.125.319,1.138,1.138,0,0,0,.465.452,1.271,1.271,0,0,0,.324.118.614.614,0,0,0,.08.016l.113.012a2.132,2.132,0,0,0,.223.01,1.256,1.256,0,0,0,.245-.026,1.52,1.52,0,0,0,.217-.074,1,1,0,0,1,.1-.038,1.2,1.2,0,0,1-1.581.58,1.488,1.488,0,0,1-.281-.12c-.014-.007-.021-.012-.019-.012a1.6,1.6,0,0,1-.7-.806,1.6,1.6,0,0,0,2.938.773.044.044,0,0,1,.011-.015l0,.007v.009a2.2,2.2,0,0,1-2.116,1.928h-.028a2.186,2.186,0,0,1-1.883-1.092l0-.006a3.34,3.34,0,0,1-.438-1.4l0,.006a2.409,2.409,0,0,0,.36,2.076,2.407,2.407,0,0,1-.739-.841l-.032-.06-.04-.086-.01-.021a2.448,2.448,0,0,1-.155-.5l0-.01c-.007-.038-.013-.077-.019-.115l0-.024c0-.036-.008-.073-.011-.109a3.326,3.326,0,0,1,.763-2.254,5.862,5.862,0,0,1,.884-.869c.22-.178.442-.342.664-.5l1.1-.794c-.13.154-.432.5-.49.574-.948,1.175-2.307,2.8-1.446,4.4a1.949,1.949,0,0,0,2.053,1h-.005a1.907,1.907,0,0,1-1.817-1.905,2.9,2.9,0,0,1,.352-1.443,19.671,19.671,0,0,1,2.334-3.16,4.585,4.585,0,0,0,1.2-1.935,2.439,2.439,0,0,0-.47-1.943,2.4,2.4,0,0,0-1.953-.9,2.031,2.031,0,0,0-1.729.987,1.292,1.292,0,0,1,.183-.153,2.691,2.691,0,0,1,.228-.149,2.536,2.536,0,0,1,1.834-.221,2.2,2.2,0,0,1,1.314,1.084,1.8,1.8,0,0,1,.152,1.1,1.839,1.839,0,0,1-.117.359,1.731,1.731,0,0,1-.151.268,1.59,1.59,0,0,1-.135.173,1.673,1.673,0,0,1-.32.282.964.964,0,0,1-.2.1.849.849,0,0,1-1.218-.458,1.086,1.086,0,0,0,1.205-.386,1.176,1.176,0,0,0-.395-1.689,2.156,2.156,0,0,0-2.2.352,6.617,6.617,0,0,0-1.053,1.027l0,0,0-1.272a2.721,2.721,0,0,1,2.76-2.484,3.1,3.1,0,0,1,3.045,2.737,3.724,3.724,0,0,1-.364,2.061,13.325,13.325,0,0,1-2.085,2.776c-.444.526-1.091,1.184-1.091,1.922" transform="translate(-759.953 -968.451)" fill="#7b868c"/>
      <path id="Trazado_16136" data-name="Trazado 16136" d="M803.134,1009.119v-.075a.21.21,0,0,0-.21-.21v.641l.769-.249a.75.75,0,0,0,.218.421.712.712,0,0,1,.2.307l-.564.243a.865.865,0,0,0,0,.538.869.869,0,0,1-.4-.17v-.2a.209.209,0,0,0-.21-.21v.643a1.181,1.181,0,0,0,.647.222.2.2,0,0,1,.2.2.057.057,0,0,0,.06-.057.55.55,0,0,0-.024-.163.643.643,0,0,1-.021-.161.613.613,0,0,1,.059-.263.829.829,0,0,1,.1-.026.87.87,0,0,1,.151-.013.8.8,0,0,1,.22.03.881.881,0,0,0,.141.025c.024,0,.048,0,.073,0a.824.824,0,0,0,.253-.04s.03-.01.037.012-.02.045-.02.045a.431.431,0,0,1-.237.1.755.755,0,0,1-.116.005c.084.195.147.359.157.382a.868.868,0,0,0,.539,0,.868.868,0,0,1-.17.4h-.2a.21.21,0,0,0-.21.21h.644a1.174,1.174,0,0,0,.222-.646.2.2,0,0,1,.2-.2.057.057,0,0,0-.057-.061.586.586,0,0,0-.164.023.592.592,0,0,1-.161.021.62.62,0,0,1-.263-.058.841.841,0,0,1-.039-.251.825.825,0,0,1,.03-.22h0a.242.242,0,0,0,.006-.033.671.671,0,0,0,.831-.65.66.66,0,0,0-.069-.295l-.058-.123a1.121,1.121,0,0,1-.127-.6,1.1,1.1,0,0,1,.179-.538h0l.02-.008a.638.638,0,0,0,.11-.061.4.4,0,0,0,.139-.264.327.327,0,0,0,0-.034.093.093,0,0,0,0-.022.468.468,0,0,0-.007-.068l-.048.031c-.024.017-.048.034-.072.053s-.047.038-.068.059-.043.04-.064.062-.04.044-.059.067l0,0-.016.02-.006.009-.012.016c-.006.008-.012.016-.018.025l0,.006a1.266,1.266,0,0,0-.078,1.308l.056.12a.514.514,0,0,1,.054.233.525.525,0,0,1-.525.524h-.018a.484.484,0,0,1-.358-.183l-.045-.06a.866.866,0,0,1-.158-.5l.01.012v0a.563.563,0,0,0,.205.138.014.014,0,0,0,.018-.019.615.615,0,0,1-.022-.327.759.759,0,0,1,.059-.185.181.181,0,0,0,.036.107.014.014,0,0,0,.026-.005.96.96,0,0,1,.1-.29l.031-.056c.016-.03.034-.06.052-.09a.877.877,0,0,0,.055-.094h0l0-.006s0-.008,0-.012l.005-.01.005-.012,0-.01,0-.012,0-.01,0-.012,0-.011,0-.012a.046.046,0,0,1,0-.011l0-.012a.051.051,0,0,1,0-.011l0-.012,0-.011,0-.013,0-.011,0-.014,0-.01a.115.115,0,0,1,0-.014l0-.011c0-.005,0-.009,0-.013l0-.011a.119.119,0,0,1,0-.014v-.011l0-.014v-.011a.094.094,0,0,0,0-.016v-.035c0-.009,0-.017,0-.026a.864.864,0,0,0-.327-.678l.047.011a.014.014,0,0,0,.012-.024.866.866,0,0,0-.631-.182l-.047.006a.042.042,0,0,0-.033.028l-.029.092-.024,0a.249.249,0,0,0-.167.114l-.24.1a.05.05,0,0,0-.032.05.052.052,0,0,0,.014.032c0,.037.028.184.089.191l.076-.022h0l.01,0c.068-.018.157-.031.181.01,0,0,.052.115-.016.141a.691.691,0,0,1-.095.012l-.059.005-.035,0s-.037.112.033.145a.571.571,0,0,1,.171-.026c.012,0,.06,0,.073,0l.036,0a.823.823,0,0,0,.259-.074.356.356,0,0,1-.187.126s-.06.02-.105.032a.427.427,0,0,0-.053.018.8.8,0,0,0-.3.217l-.735-.347.012-.008v-.136a.21.21,0,0,0-.131-.194.164.164,0,0,0-.079-.02v.5l.618.444.244-.066a.039.039,0,0,1,.049.019.036.036,0,0,1-.015.047Z" transform="translate(-779.012 -988.644)" fill="#7b868c"/>
      <path id="Trazado_16137" data-name="Trazado 16137" d="M793.789,1011.1a.884.884,0,0,1-.539,0,.861.861,0,0,0,.171.395h.2a.21.21,0,0,1,.21.21h-.644a1.176,1.176,0,0,1-.221-.646.2.2,0,0,0-.2-.2.057.057,0,0,1,.057-.061.58.58,0,0,1,.164.024.607.607,0,0,0,.161.021.621.621,0,0,0,.263-.058.82.82,0,0,0,.039-.251.845.845,0,0,0-.029-.22h0a.186.186,0,0,1-.006-.034.67.67,0,0,1-.763-.945l.059-.123a1.12,1.12,0,0,0-.053-1.134h0l-.02-.009a.58.58,0,0,1-.111-.061.4.4,0,0,1-.14-.264.313.313,0,0,1,0-.034.092.092,0,0,1,0-.022.4.4,0,0,1,.007-.068l.047.03c.025.017.049.034.072.053s.046.038.068.058.044.041.064.063.04.044.058.067l0,0,.015.02h0l.007.009.011.017.019.025,0,.006a1.268,1.268,0,0,1,.079,1.307l-.057.12a.526.526,0,0,0,.471.756h.018a.484.484,0,0,0,.358-.184c.017-.021.032-.042.045-.06a.855.855,0,0,0,.159-.5l-.009.012v0a.574.574,0,0,1-.2.138.014.014,0,0,1-.018-.02.626.626,0,0,0,.022-.326.8.8,0,0,0-.06-.185.176.176,0,0,1-.035.107.014.014,0,0,1-.026,0,.943.943,0,0,0-.1-.292.509.509,0,0,1-.03-.056c-.017-.03-.035-.06-.053-.089a.91.91,0,0,1-.055-.094l0-.006-.006-.012,0-.01-.005-.012,0-.01-.005-.012,0-.01,0-.012,0-.011a.121.121,0,0,0,0-.012l0-.011,0-.013,0-.01,0-.013,0-.01,0-.013s0-.007,0-.011l0-.012,0-.011,0-.013,0-.011,0-.014,0-.011s0-.009,0-.014l0-.011v-.014s0-.007,0-.011a.108.108,0,0,0,0-.015v-.009c0-.006,0-.011,0-.017v-.008a.25.25,0,0,1,0-.026.865.865,0,0,1,.327-.678l-.048.011a.013.013,0,0,1-.011-.024.865.865,0,0,1,.63-.182l.047.007a.042.042,0,0,1,.033.028l.029.091.023,0a.252.252,0,0,1,.168.114l.239.1a.05.05,0,0,1,.033.05.048.048,0,0,1-.014.032c0,.037-.028.184-.09.191l-.075-.022h0l-.011,0c-.068-.018-.157-.031-.181.01,0,0-.052.115.017.14a.593.593,0,0,0,.094.013l.059.005.035,0s.037.112-.033.145a.582.582,0,0,0-.171-.026c-.012,0-.061,0-.073,0l-.036,0a.821.821,0,0,1-.259-.074.351.351,0,0,0,.186.125s.06.021.106.032a.41.41,0,0,1,.052.018.8.8,0,0,1,.3.217l.736-.347-.012-.009v-.135a.211.211,0,0,1,.132-.195.162.162,0,0,1,.078-.02v.5l-.612.441-.263-.071a.039.039,0,0,0-.049.019.037.037,0,0,0,.015.048l.7.353v-.074a.21.21,0,0,1,.21-.21v.641l-.768-.248a.757.757,0,0,1-.218.421.719.719,0,0,0-.2.307l.564.244a.867.867,0,0,1,0,.538.864.864,0,0,0,.4-.171v-.2a.21.21,0,0,1,.21-.21v.644a1.177,1.177,0,0,1-.647.221.2.2,0,0,0-.195.2.058.058,0,0,1-.061-.057.6.6,0,0,1,.023-.164.589.589,0,0,0,.021-.161.619.619,0,0,0-.058-.263.783.783,0,0,0-.1-.026.822.822,0,0,0-.151-.014.81.81,0,0,0-.094.007l.049-.312a.036.036,0,0,0-.068-.02Z" transform="translate(-772.816 -988.643)" fill="#7b868c"/>
      <path id="Trazado_16138" data-name="Trazado 16138" d="M799.58,997.341a1.643,1.643,0,0,0-1.4-.875,1.59,1.59,0,0,0-1.5,0,1.642,1.642,0,0,0-1.4.875,1.277,1.277,0,0,0-.242,2.1,1.592,1.592,0,0,0,1.224.983,1.057,1.057,0,0,1,.882,1.014l0,2.775a.809.809,0,0,1-.742.773h-.164a.22.22,0,0,0-.221.22h2.815a.219.219,0,0,0-.22-.22h-.164a.8.8,0,0,1-.744-.774v-2.775a1.049,1.049,0,0,1,.816-1l.041-.008a1.586,1.586,0,0,0,1.251-.987,1.276,1.276,0,0,0-.242-2.1m-.042,1.77-.08.07-.039.1a1.145,1.145,0,0,1-.748.681v0a2.121,2.121,0,0,0-.353.108l-.007,0c-.02.021-.04.043-.06.063l-.01.007-.058.049c-.023.018-.047.035-.072.052a1.2,1.2,0,0,1-1.358,0,.886.886,0,0,1-.072-.052c-.021-.015-.04-.032-.059-.049l-.008-.007c-.021-.018-.039-.04-.059-.06l-.009-.006a2.147,2.147,0,0,0-.353-.108v0a1.144,1.144,0,0,1-.747-.681l-.039-.1-.08-.07a.843.843,0,0,1,.161-1.387l.118-.063.063-.118a1.213,1.213,0,0,1,1.027-.644l.1,0,.09-.048a1.152,1.152,0,0,1,1.093,0l.089.048.1,0a1.213,1.213,0,0,1,1.027.644l.063.118.118.063a.844.844,0,0,1,.161,1.387" transform="translate(-774.12 -982.14)" fill="#7b868c"/>
      <path id="Trazado_16139" data-name="Trazado 16139" d="M797.091,994.861a4.437,4.437,0,0,1-.951.4h2.815v6.1a4.612,4.612,0,0,1-.121,1.049,4.547,4.547,0,0,1-.423,1.117l-.068.121a4.583,4.583,0,0,1-7.933,0l-.067-.121a4.549,4.549,0,0,1-.424-1.117,4.615,4.615,0,0,1-.121-1.049v-6.1h2.865a4.6,4.6,0,0,1-.974-.4H789.4v6.5a4.978,4.978,0,0,0,.132,1.14,4.918,4.918,0,0,0,.461,1.215c.024.044.049.088.074.132a4.981,4.981,0,0,0,8.623,0c.026-.044.05-.087.074-.132a4.921,4.921,0,0,0,.461-1.215,5,5,0,0,0,.132-1.14v-6.5Z" transform="translate(-771.063 -981.308)" fill="#7b868c"/>
      <path id="Trazado_16140" data-name="Trazado 16140" d="M814.571,994.961l-.1-.1-.192.192-.192-.192-.1.1.193.191-.192.192.1.1.192-.192.192.192.1-.1-.192-.192Z" transform="translate(-785.513 -981.308)" fill="#7b868c"/>
      <path id="Trazado_16141" data-name="Trazado 16141" d="M788.061,994.961l-.1-.1-.192.192-.192-.192-.1.1.193.191-.192.192.1.1.191-.192.192.192.1-.1-.192-.192Z" transform="translate(-769.933 -981.308)" fill="#7b868c"/>
      <path id="Trazado_16142" data-name="Trazado 16142" d="M814.571,1006.31l-.1-.1-.192.192-.192-.192-.1.1.193.192-.192.192.1.1.192-.191.192.191.1-.1-.192-.192Z" transform="translate(-785.513 -987.981)" fill="#7b868c"/>
      <path id="Trazado_16143" data-name="Trazado 16143" d="M788.061,1006.31l-.1-.1-.192.192-.192-.192-.1.1.193.192-.192.192.1.1.191-.191.192.191.1-.1-.192-.192Z" transform="translate(-769.933 -987.981)" fill="#7b868c"/>
      <path id="Trazado_16144" data-name="Trazado 16144" d="M790.712,1018.105l-.1-.1-.193.192-.192-.192-.1.1.193.192-.192.192.1.1.191-.192.193.192.1-.1-.192-.192Z" transform="translate(-771.491 -994.917)" fill="#7b868c"/>
      <path id="Trazado_16145" data-name="Trazado 16145" d="M811.978,1018.105l-.1-.1-.192.192-.192-.192-.1.1.193.192-.192.192.1.1.191-.192.192.192.1-.1-.192-.192Z" transform="translate(-783.989 -994.917)" fill="#7b868c"/>
      <path id="Trazado_16146" data-name="Trazado 16146" d="M801.329,1023.264l-.1-.1-.192.192-.192-.192-.1.1.193.192-.192.192.1.1.191-.192.192.192.1-.1-.192-.192Z" transform="translate(-777.731 -997.95)" fill="#7b868c"/>
    </g>
  </g>
</svg>
