<svg xmlns="http://www.w3.org/2000/svg" width="168.805" height="81.462" viewBox="0 0 168.805 81.462">
  <g id="Grupo_10487" data-name="Grupo 10487" transform="translate(-906.223 -291.114)">
    <path id="Trazado_16499" data-name="Trazado 16499" d="M293.267,49.356a7.47,7.47,0,0,1,2.1.406c-.03,1.585.009,3.186-.009,4.777a18.958,18.958,0,0,0,2.558,9.023,13.927,13.927,0,0,0,5.8,5.636c.2.124.522.239.559.5-.891,6.552-12.072,8.12-13.812,6.487-.352-7.572-.422-15.979,1.529-23.29a20.717,20.717,0,0,1,1.275-3.538m12.746,19.952.1-.006a4.83,4.83,0,0,0,2.514-.493c3.363-2,4.312-5.289,3.194-9.273a4.427,4.427,0,0,1-.214-1.119c3.059-2.445,5.227-1.35,8.472-.831,5.043-17.25-5.446-34.471-23.379-36.748a22.2,22.2,0,0,0-9.469.476l-.393-.018c.168.4.618.227.983.228a34.878,34.878,0,0,1,17.768,6.687c.515.261.707.833.953,1.318a15.1,15.1,0,0,1,1.472,5.307,46.86,46.86,0,0,1-4.217-2.3c-6.12-3.342-17.469-5.758-25.482-5.367l-.128-.137c.06-2.979.017-5.958.025-8.937.468-.187,5.75-1.967,5.875-1.973.6-.075,1.588-6.356,2.011-7.45.137-.135.275-.269.411-.406.048-.04.147-.118.2-.158.215-.045.431-.1.646-.145,3.832.058,7.667.035,11.5,0a2.267,2.267,0,0,1,.895.845c.208,1.177,1.4,6.844,1.776,7.264a28.19,28.19,0,0,1,3.554,1.1c.158.056.325.17.5.1,1.65-1.661,3.517-3.093,5.151-4.767a2.076,2.076,0,0,1,2.308.158c1.692,1.232,8.611,5.8,8.978,6.591-.016.419-.027.846-.021,1.268-.87,2.041-1.8,4.059-2.661,6.1-.032.155-.189.315-.107.475a26.576,26.576,0,0,1,2.514,3.348c1.573.01,7.415-1.117,8.192-.5.407.2.476.7.656,1.068,1.107,3.213,2.147,6.452,3.245,9.668a1.764,1.764,0,0,1-.324,1.838c-2.162,1.133-4.2,2.495-6.344,3.648l-.108.051a28.285,28.285,0,0,0,.074,4.351c2.092,1.118,4.145,2.336,6.229,3.479a2,2,0,0,1,.536,2.315c-.614,1.766-2.769,9.492-3.705,10.5-1.24.635-5.907-.447-7.717-.349a3.38,3.38,0,0,0-.472,0,35.472,35.472,0,0,1-2.181,3.015c-.131.179-.328.41-.194.643.847,1.71,1.582,3.473,2.409,5.192.518,1.074.836,1.757-.027,2.768-1.2,1.4-7.959,6.621-9.648,6.612-.177,0-.353,0-.528,0-.7-.22-4.509-3.772-5.263-4.441-.265-.187-.556-.519-.91-.331a28.02,28.02,0,0,1-3.6,1.176,1.35,1.35,0,0,0-.257.525,61.17,61.17,0,0,1-1.511,6.883c-.222.221-.45.439-.677.656-.2.072-.4.142-.608.2-3.878-.087-7.761-.065-11.639-.012-.316-.074-.61-.217-.924-.295-.98-1.554-1.743-7.426-2.132-7.7a20,20,0,0,1-5.869-2.24l-.242-.15-.088-.063c-.053-1.139-.026-2.282-.015-3.421h.13a.815.815,0,0,1,.421.086c2.111,1.061,6.074,2.617,8.65,2.223a3.392,3.392,0,0,0,.669-.15c.576-.118,1.031.236,1.543.4,6.042,2.416,16.548-1.389,16.387-8.783Z" transform="translate(628.931 283.155)" fill="#7c858b"/>
    <path id="Trazado_16500" data-name="Trazado 16500" d="M322.008,19.251a1.929,1.929,0,0,1-.021,1.268c-.007-.422.005-.848.021-1.268" transform="translate(628.931 283.155)" fill="#7c858b"/>
    <path id="Trazado_16501" data-name="Trazado 16501" d="M278.208,28.476c2.354-.994,14.018,1.168,16.627,2.022a6.77,6.77,0,0,0-1.35,2.238,50.059,50.059,0,0,0-8.051-1.9c-.385-.067-6.336-1.014-7.065-.886l-.141.01c0-.07-.011-.206-.014-.275,0-.358,0-.714-.007-1.07Z" transform="translate(628.931 283.155)" fill="#7c858b"/>
    <path id="Trazado_16502" data-name="Trazado 16502" d="M291.335,42.735a11.061,11.061,0,0,1,4.561-1.9,25.964,25.964,0,0,1,5.591-.4,16.2,16.2,0,0,1,4.948.972c-.292.048-.582.108-.866.179a7.686,7.686,0,0,0-5.411,3.636c-.242.315-.3.887-.643,1.065-.264-3.882-5.471-3.107-8.18-3.552" transform="translate(628.931 283.155)" fill="#7c858b"/>
    <path id="Trazado_16503" data-name="Trazado 16503" d="M307.858,30.187a14.749,14.749,0,0,1,9.054,6.123c1.679,2.253,2.26,7.3.243,9.423-.512.458-1.044,1.186-1.838.954-.134-.644.532-1.008.681-1.576a2.217,2.217,0,0,0,.016-1.383,4.144,4.144,0,0,0-1.19-1.738c-1.734-1.555-4.017-2.23-6.15-3.038a10.369,10.369,0,0,0,.073-6.112c-.235-.919-.664-1.82-.889-2.653" transform="translate(628.931 283.155)" fill="#7c858b"/>
    <path id="Trazado_16504" data-name="Trazado 16504" d="M295.9,49.875c.064,0,.193,0,.256,0,1.463,7.679,7.672,11.465,14.34,9.317a3.266,3.266,0,0,1,.3,1.051c0,.575,0,1.154,0,1.732a9.8,9.8,0,0,1-1.892,4.759,3.577,3.577,0,0,1-1.968,1.224,10.1,10.1,0,0,1-1.823-.566,14.243,14.243,0,0,1-6.072-5.505,20.889,20.889,0,0,1-3.177-9.458c-.047-.349-.279-2.471.038-2.558" transform="translate(628.931 283.155)" fill="#7c858b"/>
    <path id="Trazado_16505" data-name="Trazado 16505" d="M278.373,31.007a88.266,88.266,0,0,1,13.017,2.219c.354-.05.249.3.22.524a5.212,5.212,0,0,0,0,2.067c.009.059.024.176.033.236a97.5,97.5,0,0,0-13.127-2.829c-.148-.136-.349-.267-.3-.5,0-.447,0-.888,0-1.333a.375.375,0,0,1,.16-.383" transform="translate(628.931 283.155)" fill="#7c858b"/>
    <path id="Trazado_16506" data-name="Trazado 16506" d="M300.457,34.082a2.647,2.647,0,0,1-2.854,2.627c-2.975-.026-3.575-4.1-1.22-5.317a2.777,2.777,0,0,1,4.074,2.69m-1.941-1.7a.884.884,0,0,0-.525,1.005.86.86,0,1,0,.525-1.005" transform="translate(628.931 283.155)" fill="#7c858b"/>
    <path id="Trazado_16507" data-name="Trazado 16507" d="M302.028,33.241c2.043.769,3.994,1.768,5.964,2.707a15.851,15.851,0,0,1-.8,4.631,19.881,19.881,0,0,0-8.537-1.128c-1.021.045-2,.384-3.011.453a5.5,5.5,0,0,1-2.936-4.123c.005-.667.005-1.331.006-1.995,1.3-.137.764,1.579,1.919,2.9a4.293,4.293,0,0,0,6.467-.369,6.166,6.166,0,0,0,.839-1.82,4.315,4.315,0,0,0,.092-1.253" transform="translate(628.931 283.155)" fill="#7c858b"/>
    <path id="Trazado_16508" data-name="Trazado 16508" d="M278.213,34.847c-.077-.383.477-.642.8-.4A117.973,117.973,0,0,1,292,37.153a8.559,8.559,0,0,0,1.6,2.725c.089.109.181.216.273.321.65.465-.675.444-1.509.4-2.282-.114-11.754-2.411-13.987-3.654-.247-.12-.146-.417-.171-.635,0-.491,0-.977,0-1.466" transform="translate(628.931 283.155)" fill="#7c858b"/>
    <path id="Trazado_16509" data-name="Trazado 16509" d="M278.222,48.577c.243-.354.653-.337,1.054-.3,1.818,0,3.637,0,5.454,0,.886-.006,1.883.163,2.659.135.182,0,.362,0,.544,0-.033.182-.245.232-.389.292a68.908,68.908,0,0,0-8.7,4.719c-.217.091-.62.07-.628-.236,0-1.54-.014-3.08.007-4.618" transform="translate(628.931 283.155)" fill="#7c858b"/>
    <path id="Trazado_16510" data-name="Trazado 16510" d="M288.1,48.865a1.718,1.718,0,0,1,1.678-.155c-.04.369-1.438,1.712-1.77,2.1-3.573,4.2-6.274,9.082-9.271,13.7-.562-.294-.7-.96-.86-1.517-.409-2.529-.894-5.647.627-7.912,3.082-2.246,6.4-4.146,9.6-6.218" transform="translate(628.931 283.155)" fill="#7c858b"/>
    <path id="Trazado_16511" data-name="Trazado 16511" d="M308.284,40.31c.009-.18.176-.351.362-.249a16.8,16.8,0,0,0,1.764.616c.141.051.413.087.383.294,0,.7.1,2.176-.667,2.516a3.49,3.49,0,0,0-1.235.1c-.3.141-.77.267-.617.7a10.22,10.22,0,0,1,1.591,5.862c-.006.56-.756.662-1.2.664-.335.1-1.018-.191-1.194.13-.01.407-.324.957.1,1.235a1.176,1.176,0,0,1-.884.8c-.021.339.141.643.1,1-.347.449-1.039.3-1.355.8a4.967,4.967,0,0,1-4.124-2.471,4.849,4.849,0,0,1-.622-3.066,6,6,0,0,1,2.435-5.028c.569-.428,1.222.116,1.8.249.08.424-.65.213-.919.4.108.3,1.871.667,2.1.624a.759.759,0,0,0,.059-.77c.257-.153.619-.072.832-.277.018-.067.054-.2.071-.264v-.129c-.561-.005-2.7.062-2.9-.505a7.026,7.026,0,0,1,3.549-1.118c.193-.7.429-1.386.562-2.1" transform="translate(628.931 283.155)" fill="#7c858b"/>
    <path id="Trazado_16512" data-name="Trazado 16512" d="M294.568,44.252c-1.284,1.458-1.626,2.631-.384,4.3a78.6,78.6,0,0,0-15.7-1.333c-.225,0-.234-.356-.275-.526q0-.87,0-1.733c.042-.672.955-.712,1.464-.662,1.5-.027,14.724-.929,14.891-.041" transform="translate(628.931 283.155)" fill="#7c858b"/>
    <path id="Trazado_16513" data-name="Trazado 16513" d="M295.9,46.286c.4,0,.79,0,1.19,0,.008.176.008.352,0,.531-.4-.006-.793,0-1.19,0a4.47,4.47,0,0,1,0-.53" transform="translate(628.931 283.155)" fill="#7c858b"/>
    <path id="Trazado_16514" data-name="Trazado 16514" d="M299.151,48.071l.064-.082a7.559,7.559,0,0,0,1.5,5.05c.09.167.353.409.084.545-1.3-.589-2.025-1.9-2.758-3.052-.18-.37-.508-.727-.406-1.167a3.612,3.612,0,0,0,1.513-1.294" transform="translate(628.931 283.155)" fill="#7c858b"/>
    <path id="Trazado_16515" data-name="Trazado 16515" d="M291.019,48.97c.3.012,1.143-.168,1.276.241-4.448,10.615-4.127,16.118-4.924,26.044-3.217-.024-6.346.5-9.065-2.065a4.208,4.208,0,0,1-1.014-1.637,104.684,104.684,0,0,1,10.6-18.647c1.056-1.3,1.954-2.734,3.125-3.936" transform="translate(628.931 283.155)" fill="#7c858b"/>
    <path id="Trazado_16516" data-name="Trazado 16516" d="M296.7,49.876c.364-.211.536-.12.647.062.093.15.144.362.229.514a7.506,7.506,0,0,0,.662,1.4,8.2,8.2,0,0,0,5.607,3.784,9.942,9.942,0,0,0,1.76.1,5.714,5.714,0,0,0,2.628,1.232,9.593,9.593,0,0,0,1.1.1c.234-.087.155.373.007.4-3.031,1.913-5.865,1.241-8.552-1.043-1.22-.94-4.372-4.931-4.092-6.548" transform="translate(628.931 283.155)" fill="#7c858b"/>
    <path id="Trazado_16517" data-name="Trazado 16517" d="M322.467,66.516a5.222,5.222,0,0,1,1.258.088,4.09,4.09,0,0,1-1.258-.088" transform="translate(628.931 283.155)" fill="#7c858b"/>
    <path id="Trazado_16518" data-name="Trazado 16518" d="M325.525,66.795a4.4,4.4,0,0,1,1.125.077,5.622,5.622,0,0,1-1.125-.077" transform="translate(628.931 283.155)" fill="#7c858b"/>
    <path id="Trazado_16519" data-name="Trazado 16519" d="M278.585,38.387a14.352,14.352,0,0,1,2.855.7,67.677,67.677,0,0,0,10.017,2.2c.188.024.523-.052.371.25a17.328,17.328,0,0,0-1.841,1.228c-2.856.186-7.067.481-9.968.536-.482-.01-.962,0-1.442-.01a4.754,4.754,0,0,1-.424-1.99c0-.667.008-1.331,0-2a1.145,1.145,0,0,1,.431-.911" transform="translate(628.931 283.155)" fill="#7c858b"/>
    <path id="Trazado_16520" data-name="Trazado 16520" d="M296.516,44.519a2.032,2.032,0,1,1-2.032,2.032,2.033,2.033,0,0,1,2.032-2.032m0,.949a1.083,1.083,0,1,1-1.082,1.083,1.083,1.083,0,0,1,1.082-1.083" transform="translate(628.931 283.155)" fill="#7c858b"/>
    <path id="Trazado_16521" data-name="Trazado 16521" d="M364.173,56.783a2.987,2.987,0,0,1,1.146-3.144c1.282-.622,2.15.732,2.331,1.7.662,3.521-2.913,4.571-3.477,1.447m2.877-4.953c-2.319-.969-4.026,1.074-4.463,2.921-1.371,5.8,5.474,8.208,6.694,2.563.52-2.4-.513-4.767-2.231-5.484" transform="translate(628.931 283.155)" fill="#7c858b"/>
    <path id="Trazado_16522" data-name="Trazado 16522" d="M391.052,45.552c-2.344.781-2.965-4.187-.919-5.015,2.387-.967,3.033,4.311.919,5.015m2.893-2.953c-.136-2.146-1.506-4.452-3.882-4.018-1.936.353-2.925,2.822-2.77,4.949.421,5.779,7.035,5.108,6.652-.931" transform="translate(628.931 283.155)" fill="#7c858b"/>
    <path id="Trazado_16523" data-name="Trazado 16523" d="M400.458,43.531c-.447-3.356,3.05-4.372,3.4-.931s-2.969,4.21-3.4.931m1.075-4.892c-4.476,1.3-2.985,9.987,1.351,8.82,1.82-.49,2.856-2.849,2.565-5.253-.231-1.915-1.669-4.217-3.916-3.567" transform="translate(628.931 283.155)" fill="#7c858b"/>
    <path id="Trazado_16524" data-name="Trazado 16524" d="M412.153,46.688l.012-4.058-2.781-.056-.009,1.689,1.249.023-.025,1.283a1.7,1.7,0,0,1-2.393-.826,3.807,3.807,0,0,1-.3-2.731,2.158,2.158,0,0,1,1.527-1.657c1.186-.25,1.57.548,2.257.956l.152-2.052a4.895,4.895,0,0,0-2.32-.695,3.252,3.252,0,0,0-2.545,1.568c-2.252,3.485.477,9.782,5.18,6.556" transform="translate(628.931 283.155)" fill="#7c858b"/>
    <path id="Trazado_16525" data-name="Trazado 16525" d="M394.929,58.446l0-4.746c1.709-.046,2.646.7,2.623,2.422-.021,1.7-.921,2.34-2.626,2.324m-1.594-6.561-.013,8.38c1.549.005,3.181.214,4.377-.746a4.222,4.222,0,0,0,1.533-3.535c-.067-4.324-3.552-4.077-5.9-4.1" transform="translate(628.931 283.155)" fill="#7c858b"/>
    <path id="Trazado_16526" data-name="Trazado 16526" d="M401.746,56.85l1.71-.021.01-1.668-1.729-.036-.019-1.5,2.627-.015,0-1.685-4.191-.034-.028,8.356,4.243.017.016-1.742-2.656-.029Z" transform="translate(628.931 283.155)" fill="#7c858b"/>
    <path id="Trazado_16527" data-name="Trazado 16527" d="M348.783,57.577l.839-2.414L350.5,57.6Zm-2.5,2.687,1.578.011.452-1.226,2.764.012.417,1.19,1.656.016L349.779,51.9c-1.017,1.68-2.878,6.862-3.5,8.365" transform="translate(628.931 283.155)" fill="#7c858b"/>
    <path id="Trazado_16528" data-name="Trazado 16528" d="M373.5,45.514l-2.494-.03-.03-1.651,1.455-.019.006-1.723-1.469-.028-.009-1.481,2.469-.031.048-1.739-4.014-.018-.016,8.475,3.969.02Z" transform="translate(628.931 283.155)" fill="#7c858b"/>
    <path id="Trazado_16529" data-name="Trazado 16529" d="M364.822,47.25l1.561.013.07-6.682,2.022-.042-.043-1.748-5.677,0,0,1.772,2.065.023Z" transform="translate(628.931 283.155)" fill="#7c858b"/>
    <path id="Trazado_16530" data-name="Trazado 16530" d="M385.674,51.908l-1.625-.012-.008,8.37,4.285,0,.016-1.766-2.614-.04Z" transform="translate(628.931 283.155)" fill="#7c858b"/>
    <path id="Trazado_16531" data-name="Trazado 16531" d="M398.882,47.283l.009-1.806-2.511-.021-.046-6.632-1.553-.012,0,8.457Z" transform="translate(628.931 283.155)" fill="#7c858b"/>
    <path id="Trazado_16532" data-name="Trazado 16532" d="M359.849,60.234l1.617.036.02-8.373-1.637.015Z" transform="translate(628.931 283.155)" fill="#7c858b"/>
    <path id="Trazado_16533" data-name="Trazado 16533" d="M415.044,38.807l-1.562.006,0,8.46,1.558.01Z" transform="translate(628.931 283.155)" fill="#7c858b"/>
    <path id="Trazado_16534" data-name="Trazado 16534" d="M355.75,53.695c1.175-.519,2.092.427,2.744.783l-.036-2.048c-2.21-1.817-5.54-.264-5.616,3.557h0c0,.038,0,.074,0,.111s0,.073,0,.111h0c.076,3.821,3.406,5.374,5.616,3.557l.036-2.048c-.652.356-1.569,1.3-2.744.783a2.948,2.948,0,0,1,0-4.806" transform="translate(628.931 283.155)" fill="#7c858b"/>
    <path id="Trazado_16535" data-name="Trazado 16535" d="M374.031,43.1c.076,3.821,3.406,5.374,5.616,3.557l.036-2.048c-.653.356-1.57,1.3-2.744.784a2.534,2.534,0,0,1-1.24-2.4,2.533,2.533,0,0,1,1.24-2.4c1.174-.519,2.091.427,2.744.783l-.036-2.048c-2.21-1.817-5.54-.264-5.616,3.557h0c0,.038,0,.074,0,.111s0,.073,0,.111Z" transform="translate(628.931 283.155)" fill="#7c858b"/>
    <path id="Trazado_16536" data-name="Trazado 16536" d="M421.525,46.659l.037-2.049c-.653.357-1.57,1.3-2.745.784a2.535,2.535,0,0,1-1.24-2.4,2.535,2.535,0,0,1,1.24-2.4c1.175-.52,2.092.427,2.745.783l-.037-2.048c-2.209-1.817-5.54-.264-5.615,3.557h0c0,.037,0,.073,0,.111s0,.073,0,.111h0c.075,3.821,3.406,5.373,5.615,3.557" transform="translate(628.931 283.155)" fill="#7c858b"/>
    <path id="Trazado_16537" data-name="Trazado 16537" d="M379.121,57.577l.838-2.414.877,2.441Zm-2.5,2.687,1.578.011.452-1.226,2.763.012.418,1.19,1.656.016L380.117,51.9c-1.017,1.68-2.878,6.862-3.5,8.365" transform="translate(628.931 283.155)" fill="#7c858b"/>
    <path id="Trazado_16538" data-name="Trazado 16538" d="M425.317,40.537c2.388-.967,3.034,4.311.92,5.015-2.345.781-2.965-4.187-.92-5.015M429.13,42.6c-.136-2.146-1.506-4.452-3.883-4.018-1.935.353-2.924,2.822-2.769,4.949.422,5.779,7.035,5.108,6.652-.931" transform="translate(628.931 283.155)" fill="#7c858b"/>
    <path id="Trazado_16539" data-name="Trazado 16539" d="M344.278,56.32c-.615-.664-4.06-4.376-4.1-4.39a1.949,1.949,0,0,0-.352-.034l-.038,8.364,1.5-.014.008-4.41c.528.571,3.99,4.351,4.1,4.39a2.044,2.044,0,0,0,.352.034l.037-8.364-1.5.013Z" transform="translate(628.931 283.155)" fill="#7c858b"/>
    <path id="Trazado_16540" data-name="Trazado 16540" d="M374.61,56.32c-.615-.664-4.06-4.376-4.1-4.39a1.959,1.959,0,0,0-.352-.034l-.037,8.364,1.5-.014.009-4.41c.528.571,3.989,4.351,4.1,4.39a2.068,2.068,0,0,0,.353.034l.037-8.364-1.5.013Z" transform="translate(628.931 283.155)" fill="#7c858b"/>
    <path id="Trazado_16541" data-name="Trazado 16541" d="M382.191,42.932c.528.57,3.989,4.351,4.1,4.39a1.88,1.88,0,0,0,.352.034l.037-8.364-1.5.013-.009,4.411c-.615-.665-4.06-4.375-4.1-4.39a1.949,1.949,0,0,0-.352-.034l-.038,8.364,1.5-.013Z" transform="translate(628.931 283.155)" fill="#7c858b"/>
    <path id="Trazado_16542" data-name="Trazado 16542" d="M403.54,37.2l-.505-.555-1.156,1.291h1Z" transform="translate(628.931 283.155)" fill="#7c858b"/>
    <path id="Trazado_16543" data-name="Trazado 16543" d="M413.1,57.079l-.054-.053v0l0,0,0,0v0l-.054.053-2.536-5.035L409.1,60.437l1.544-.09.6-3.656c.289.641.6,1.287.872,1.923.112.266.27.612.4.919.428,1,.241.769.524.85h.005c.283-.081.1.152.524-.85.131-.307.289-.653.4-.919.267-.636.583-1.282.872-1.923l.6,3.656,1.545.09-1.354-8.393Z" transform="translate(628.931 283.155)" fill="#7c858b"/>
    <path id="Trazado_16544" data-name="Trazado 16544" d="M429.145,52.044l-1.762-.03L426.112,54.3,424.65,52l-1.539.009c.44,1.237,1.7,3.087,1.9,4.111l-2.329,4.3H424.2a10.774,10.774,0,0,0,1.682-2.745c.8.76.912,1.549,1.764,2.686l1.931.06c-.363-.647-2.45-4.205-2.569-4.568Z" transform="translate(628.931 283.155)" fill="#7c858b"/>
    <path id="Trazado_16545" data-name="Trazado 16545" d="M419.372,58.651l-.032-1.656,1.581-.024.034-1.6-1.616-.123-.018-1.48,2.621-.043.025-1.7-4.227-.019-.005,8.4,3.821.021c.586-.051.167,0,.358-.108a5.377,5.377,0,0,0,.087-1.61Z" transform="translate(628.931 283.155)" fill="#7c858b"/>
    <path id="Trazado_16546" data-name="Trazado 16546" d="M430.515,60.408l1.629,0,.009-8.377-1.636-.019Z" transform="translate(628.931 283.155)" fill="#7c858b"/>
    <path id="Trazado_16547" data-name="Trazado 16547" d="M435.724,53.695c1.175-.519,2.091.427,2.744.783l-.036-2.048c-2.21-1.817-5.54-.264-5.616,3.557h0c0,.038,0,.074,0,.111s0,.073,0,.111h0c.076,3.821,3.406,5.374,5.616,3.557l.036-2.048c-.653.356-1.569,1.3-2.744.783a2.948,2.948,0,0,1,0-4.806" transform="translate(628.931 283.155)" fill="#7c858b"/>
    <path id="Trazado_16548" data-name="Trazado 16548" d="M440.854,56.783A2.986,2.986,0,0,1,442,53.639c1.282-.622,2.15.732,2.331,1.7.662,3.521-2.914,4.571-3.477,1.447m2.877-4.953c-2.319-.969-4.026,1.074-4.463,2.921-1.371,5.8,5.474,8.208,6.694,2.563.52-2.4-.513-4.767-2.231-5.484" transform="translate(628.931 283.155)" fill="#7c858b"/>
    <path id="Trazado_16549" data-name="Trazado 16549" d="M420.373,51.614l.663-.736-.505-.556-1.156,1.292Z" transform="translate(628.931 283.155)" fill="#7c858b"/>
  </g>
</svg>
